<svg xmlns="http://www.w3.org/2000/svg" viewBox="-2 12 104 104" width="104" height="104"><metadata><rdf:RDF xmlns:rdf="http://www.w3.org/1999/02/22-rdf-syntax-ns#" xmlns:dc="http://purl.org/dc/elements/1.1/"><rdf:Description><dc:creator>RealFaviconGenerator</dc:creator><dc:source>https://realfavicongenerator.net</dc:source></rdf:Description></rdf:RDF></metadata><ellipse cx="50" cy="85" rx="38" ry="30" fill="#E8D44A"></ellipse><ellipse cx="12.7" cy="75.5" rx="10" ry="15.7" fill="#D4BE38" transform="rotate(-20 12.7 75.5)"></ellipse><ellipse cx="87.3" cy="75.5" rx="10" ry="15.7" fill="#D4BE38" transform="rotate(20 87.3 75.5)"></ellipse><ellipse cx="50" cy="50" rx="31" ry="29" fill="#E8D44A"></ellipse><rect x="39" y="22" width="22" height="7" rx="4" fill="#8B5E2A"></rect><ellipse cx="28" cy="57" rx="7" ry="4" fill="#FF9090" opacity="0.4"></ellipse><ellipse cx="72" cy="57" rx="7" ry="4" fill="#FF9090" opacity="0.4"></ellipse><ellipse cx="46.4" cy="63" rx="2.3" ry="2" fill="#A07030"></ellipse><ellipse cx="53.6" cy="63" rx="2.3" ry="2" fill="#A07030"></ellipse><ellipse cx="50" cy="70" rx="13.6" ry="9.8" fill="#C8960A"></ellipse><ellipse cx="50" cy="65" rx="11.8" ry="6.9" fill="#D4A820"></ellipse><ellipse cx="40" cy="112" rx="10" ry="4" fill="#C8960A"></ellipse><ellipse cx="60" cy="112" rx="10" ry="4" fill="#C8960A"></ellipse><g stroke="#5A3010" stroke-width="2" fill="none" stroke-linecap="round">
    <path d="M 30 42 Q 35 37 40 42"></path>
    <path d="M 60 42 Q 65 37 70 42"></path>
  </g><ellipse cx="35" cy="50" rx="6.4" ry="6.4" fill="white"></ellipse><ellipse cx="35" cy="50" rx="4.1" ry="4.1" fill="#7A4518"></ellipse><ellipse cx="35" cy="50" rx="2" ry="2" fill="#2A1408"></ellipse><ellipse cx="36.8" cy="48" rx="1.4" ry="1.4" fill="white"></ellipse><ellipse cx="65" cy="50" rx="6.4" ry="6.4" fill="white"></ellipse><ellipse cx="65" cy="50" rx="4.1" ry="4.1" fill="#7A4518"></ellipse><ellipse cx="65" cy="50" rx="2" ry="2" fill="#2A1408"></ellipse><ellipse cx="66.8" cy="48" rx="1.4" ry="1.4" fill="white"></ellipse><path d="M 40 74 Q 50 81 60 74" stroke="#A07828" stroke-width="1.8" fill="none" stroke-linecap="round"></path></svg>